<svg width="394" height="73" viewBox="0 0 394 73" fill="none" xmlns="http://www.w3.org/2000/svg">
<path d="M114.254 71.4081C110.878 53.3326 100.025 42.4565 81.9888 39.0713C81.7706 37.2254 81.6633 36.0004 81.9606 35.5394C82.2711 35.0558 83.5958 34.7397 85.5979 34.2636C101.78 30.41 113.976 16.2145 113.966 1.24573L113.964 0.301095L113.025 0.199568C105.63 -0.605793 98.6192 1.02182 91.5967 5.16529C83.4697 9.96359 78.0618 17.1422 75.0831 27.0944H69.709V1.02935H62.7618V35.3851H73.6097V39.1429H62.6733V71.9481H69.9686V46.7881H75.2072C82.8281 63.8588 94.5133 73 108.5 73C110.094 73 111.716 72.8814 113.366 72.6425L114.45 72.4844L114.254 71.4081ZM83.5318 26.6786C86.5651 17.4639 95.998 9.30688 104.594 8.4827C102.524 16.1261 93.9357 24.8195 83.5318 26.6786ZM104.129 64.3932C97.2342 64.2408 88.0366 56.6105 84.0813 47.7196C92.2083 48.7601 100.719 55.8127 104.129 64.3932Z" fill="#7FC6AF"/>
<path d="M53.8987 35.566C53.8987 43.3072 51.3189 49.7839 46.1575 54.9924C40.9471 60.2499 34.57 62.8805 27.0226 62.8805C19.4281 62.8805 13.0492 60.2518 7.88773 54.9924C2.72627 49.7839 0.146484 43.3072 0.146484 35.566C0.146484 27.8247 2.72627 21.3498 7.88773 16.1394C13.0473 10.882 19.4262 8.25146 27.0226 8.25146C34.619 8.25146 40.996 10.9046 46.1575 16.211C51.3189 21.4213 53.8987 27.8737 53.8987 35.566ZM7.01275 35.566C7.01275 41.6043 8.91139 46.5945 12.7086 50.5385C16.5548 54.4825 21.3267 56.4546 27.0226 56.4546C32.7185 56.4546 37.4659 54.4825 41.2651 50.5385C45.1112 46.6434 47.0343 41.6532 47.0343 35.566C47.0343 29.4806 45.1112 24.4904 41.2651 20.5953C37.4678 16.6513 32.7203 14.6792 27.0226 14.6792C21.3267 14.6792 16.5548 16.6513 12.7086 20.5953C8.91139 24.5374 7.01275 29.5295 7.01275 35.566Z" fill="white"/>
<path d="M126.275 61.7099H118.825L138.543 9.41797H146.138L165.856 61.7099H158.406L153.367 47.5409H131.385L126.275 61.7099ZM142.196 17.6728L133.651 41.2617H151.032L142.487 17.6728H142.196Z" fill="white"/>
<path d="M179.518 61.7099H172.799V9.41797H179.518V61.7099Z" fill="white"/>
<path d="M223.114 47.761C223.114 52.3372 221.434 56.014 218.075 58.7894C214.667 61.516 210.528 62.8784 205.66 62.8784C201.326 62.8784 197.505 61.6139 194.195 59.0812C190.883 56.5503 188.595 53.0935 187.33 48.7111L193.756 46.0824C194.195 47.6405 194.803 49.0517 195.582 50.3181C196.361 51.5844 197.273 52.6684 198.321 53.5678C199.368 54.4692 200.523 55.1747 201.791 55.6866C203.057 56.1984 204.395 56.4543 205.807 56.4543C208.874 56.4543 211.382 55.6639 213.33 54.0814C215.277 52.4989 216.252 50.3933 216.252 47.7646C216.252 45.5743 215.448 43.7002 213.841 42.1422C212.332 40.6331 209.508 39.1729 205.37 37.7598C201.181 36.2507 198.577 35.2289 197.555 34.6926C192.004 31.8701 189.229 27.7059 189.229 22.2039C189.229 18.3577 190.763 15.0723 193.83 12.3438C196.946 9.61729 200.767 8.25488 205.297 8.25488C209.288 8.25488 212.746 9.27665 215.667 11.322C218.587 13.3185 220.535 15.8269 221.509 18.8451L215.228 21.4738C214.645 19.5262 213.486 17.908 211.758 16.6171C210.029 15.3282 207.924 14.6827 205.442 14.6827C202.813 14.6827 200.596 15.4128 198.795 16.873C196.993 18.2373 196.093 20.0136 196.093 22.2039C196.093 24.0065 196.799 25.5627 198.212 26.878C199.77 28.1933 203.153 29.7513 208.364 31.5521C213.67 33.3548 217.456 35.5582 219.72 38.1625C221.984 40.7629 223.114 43.9637 223.114 47.761Z" fill="white"/>
<path d="M238.743 61.7099H232.024V9.41797H238.743V61.7099Z" fill="white"/>
<path d="M300.528 35.566C300.528 43.3072 297.948 49.7839 292.787 54.9924C287.576 60.2499 281.199 62.8805 273.652 62.8805C266.057 62.8805 259.678 60.2518 254.517 54.9924C249.355 49.7839 246.776 43.3072 246.776 35.566C246.776 27.8247 249.355 21.3498 254.517 16.1394C259.676 10.882 266.055 8.25146 273.652 8.25146C281.248 8.25146 287.625 10.9046 292.787 16.211C297.946 21.4213 300.528 27.8737 300.528 35.566ZM253.64 35.566C253.64 41.6043 255.539 46.5945 259.336 50.5385C263.182 54.4825 267.954 56.4546 273.65 56.4546C279.346 56.4546 284.093 54.4825 287.892 50.5385C291.738 46.6434 293.661 41.6532 293.661 35.566C293.661 29.4806 291.738 24.4904 287.892 20.5953C284.095 16.6513 279.347 14.6792 273.65 14.6792C267.954 14.6792 263.182 16.6513 259.336 20.5953C255.54 24.5374 253.64 29.5295 253.64 35.566Z" fill="white"/>
<path d="M316.015 61.7099H309.295V9.41797H317.475L342.891 50.0962H343.183L342.891 40.0179V9.41797H349.61V61.7099H342.599L316.015 19.0596H315.723L316.015 29.138V61.7099Z" fill="white"/>
<path d="M393.204 47.761C393.204 52.3372 391.524 56.014 388.165 58.7894C384.758 61.516 380.618 62.8784 375.75 62.8784C371.416 62.8784 367.595 61.6139 364.285 59.0812C360.973 56.5503 358.685 53.0935 357.42 48.7111L363.846 46.0824C364.285 47.6405 364.893 49.0517 365.672 50.3181C366.451 51.5844 367.363 52.6684 368.411 53.5678C369.458 54.4692 370.613 55.1747 371.881 55.6866C373.148 56.1984 374.485 56.4543 375.897 56.4543C378.964 56.4543 381.472 55.6639 383.42 54.0814C385.367 52.4989 386.342 50.3933 386.342 47.7646C386.342 45.5743 385.538 43.7002 383.931 42.1422C382.422 40.6331 379.598 39.1729 375.46 37.7598C371.272 36.2507 368.667 35.2289 367.645 34.6926C362.095 31.8701 359.319 27.7059 359.319 22.2039C359.319 18.3577 360.853 15.0723 363.92 12.3438C367.036 9.61729 370.858 8.25488 375.387 8.25488C379.378 8.25488 382.836 9.27665 385.757 11.322C388.677 13.3185 390.625 15.8269 391.599 18.8451L385.318 21.4738C384.735 19.5262 383.576 17.908 381.848 16.6171C380.119 15.3282 378.014 14.6827 375.532 14.6827C372.903 14.6827 370.686 15.4128 368.886 16.873C367.083 18.2373 366.183 20.0136 366.183 22.2039C366.183 24.0065 366.889 25.5627 368.302 26.878C369.86 28.1933 373.244 29.7513 378.454 31.5521C383.76 33.3548 387.546 35.5582 389.81 38.1625C392.074 40.7629 393.204 43.9637 393.204 47.761Z" fill="white"/>
</svg>
